<?xml version="1.0" encoding="UTF-8"?>
<svg id="Camada_2" data-name="Camada 2" xmlns="http://www.w3.org/2000/svg" viewBox="0 0 147.6 145.71">
  <defs>
    <style>
      .cls-1 {
        fill: #213059;
        stroke-width: 0px;
      }
    </style>
  </defs>
  <g id="Camada_1-2" data-name="Camada 1">
    <g>
      <path class="cls-1" d="M73.81,145.61c-22.49,0-44.99-.12-67.48.09C1.55,145.75-.02,144.35,0,139.47.17,100.64.08,61.82.09,22.99c0-6.44.1-6.52,6.3-6.52,20.66,0,41.32.1,61.98-.1,4.35-.04,5.91,1.2,5.7,5.65-.33,7.15.08,14.33-.17,21.49-.11,3.21,1,4.22,3.98,3.8.82-.12,1.67-.07,2.5-.01,1.65.12,3.59-.01,3.47,2.48-.13,2.49-2.12,2.16-3.73,2.16-7.16,0-14.34.13-21.49-.13-3.18-.12-4.48.63-4.33,4.05.25,5.82.26,11.67,0,17.49-.15,3.25,1.08,3.78,4.01,3.87,2.56.07,7.24-1.89,7.15,2.52-.08,3.97-4.57,1.97-7.03,2.06-7.82.28-15.66.23-23.49.04-3.1-.08-4.46.56-4.28,4.04.3,5.82.24,11.67.01,17.49-.13,3.19.69,4.45,4.12,4.27,5.48-.28,11,.02,16.49-.1,3.39-.08,4.69,1.16,4.59,4.7-.22,8.33.03,16.66-.13,24.99-.05,2.81.75,3.72,3.63,3.68,12-.15,24-.19,35.99.02,3.38.06,3.76-1.34,3.7-4.13-.15-7.5-.09-15-.02-22.49.02-1.9-.36-4.49,2.65-4.37,2.71.11,2.14,2.53,2.15,4.25.05,7.66.12,15.33-.03,22.99-.06,2.77.72,3.77,3.63,3.72,10.66-.15,21.33-.14,31.99,0,2.71.04,3.41-.95,3.37-3.48-.12-7.33-.18-14.67,0-21.99.07-2.91-.94-3.66-3.71-3.61-8.16.16-16.33.07-24.49.04-1.94,0-4.56.43-4.44-2.51.1-2.42,2.47-2.25,4.3-2.25,9.5-.01,19,.09,28.49-.06,3.62-.06,4.6,1.67,4.57,4.9-.08,9.33-.21,18.67.04,27.99.12,4.41-1.46,5.77-5.8,5.74-22.66-.16-45.32-.08-67.98-.08ZM28.58,112.22c-6.65,0-13.31.11-19.96-.05-2.65-.06-3.92.45-3.84,3.49.19,7.31.16,14.64,0,21.95-.06,2.73,1.06,3.32,3.54,3.3,13.14-.1,26.28-.12,39.42,0,2.69.02,3.38-.93,3.33-3.45-.13-7.15-.18-14.31.04-21.45.1-3.19-1.13-3.93-4.07-3.84-6.15.19-12.31.06-18.46.05ZM27.29,51.9s0,.07,0,.11c-6.32,0-12.64.07-18.96-.04-2.45-.04-3.64.53-3.56,3.31.17,6.15.16,12.31,0,18.46-.07,2.63.84,3.42,3.43,3.4,12.64-.11,25.28-.12,37.92,0,2.77.03,3.78-.72,3.68-3.62-.21-5.98-.27-11.98.01-17.96.16-3.35-1.24-3.81-4.07-3.72-6.15.18-12.31.06-18.46.06ZM49.78,47.18c0-.08,0-.17,0-.25,5.49,0,10.99-.07,16.48.03,2.26.04,3.33-.6,3.28-3.09-.12-6.66-.08-13.32-.02-19.97.02-2.1-.79-2.94-2.95-2.93-10.99.07-21.97.07-32.96,0-2.14-.01-2.94.7-2.92,2.87.09,6.99.07,13.98,0,20.97-.02,1.94.61,2.5,2.62,2.44,5.49-.18,10.98-.06,16.47-.06ZM25.86,34.75c0-3.33-.13-6.67.04-9.99.14-2.67-.5-3.97-3.54-3.82-4.65.23-9.33.19-13.98,0-2.93-.12-3.71,1.03-3.6,3.79.19,4.82.06,9.66.05,14.49q0,8.43,8.34,8.35,12.68-.12,12.68-12.81ZM25.86,94.81c0-3.17-.13-6.34.04-9.49.13-2.51-.56-3.6-3.3-3.48-4.82.2-9.67.2-14.49,0-2.76-.11-3.4,1.02-3.31,3.51.15,4.49.05,8.99.05,13.49q0,8.72,8.52,8.72,12.5,0,12.49-12.75Z"/>
      <path class="cls-1" d="M113.17,44.41c3.35,3.7,6.25,6.87,9.12,10.08,3.93,4.4,3.78,7.49-.52,11.49q-5.12,4.77-.1,9.83c1.76,1.78,3.63,3.46,5.22,5.38,4.98,5.97,3.29,14.35-3.98,16.85-18.23,6.27-36.64,12-54.98,17.94-1.47.47-2.94.78-4.14-.62-1.21-1.4-.53-2.8.01-4.21,6.63-17.05,13.16-34.14,19.92-51.13,3.4-8.53,11.82-10.24,18.43-3.94,3.01,2.87,6.01,5.79,8.73,8.93,3.41,3.94,4.73-.28,6.58-1.61,1.91-1.38,4.29-2.86,1.36-5.85-5.13-5.23-10.04-10.68-14.91-16.15-5.94-6.68-5.64-13.33.85-19.23,6.78-6.16,13.62-12.26,20.53-18.27,6.07-5.27,12.93-5.14,17.79.14,4.82,5.25,4.14,12.68-1.81,18.09-6.78,6.16-13.68,12.19-20.5,18.3-2.02,1.81-4.34,3.05-7.61,3.99ZM69.06,110.71c18.3-5.96,35.33-11.39,52.28-17.1,3.28-1.1,4.67-4.43,3.09-7.39-2.51-4.73-6.54-8.93-11.01-11.26-2.78-1.45-5.29,4.02-8.23,5.99-.82.55-1.49,1.32-2.26,1.96-1.35,1.12-2.77,3.2-4.57,1.2-1.9-2.11.15-3.56,1.63-4.9,2.59-2.35,5.11-4.77,7.79-7.02,1.48-1.24,1.73-2.13.23-3.57-3.24-3.11-6.23-6.48-9.55-9.51-3.86-3.53-8.15-2.78-10.04,1.96-6.4,16.04-12.57,32.16-19.36,49.63ZM141.69,11.83c-.46-2.77-1.76-5.2-4.63-6.4-3.07-1.28-5.83-.55-8.27,1.64-6.93,6.2-13.89,12.35-20.78,18.6-3.93,3.56-4.51,8.16-1.62,11.34,3.05,3.36,7.27,3.31,11.45-.36,6.86-6.02,13.6-12.18,20.46-18.21,1.99-1.75,3.12-3.81,3.39-6.61Z"/>
    </g>
  </g>
</svg>