<?xml version="1.0" encoding="UTF-8"?>
<svg id="Camada_2" data-name="Camada 2" xmlns="http://www.w3.org/2000/svg" viewBox="0 0 109.5 147.07">
  <defs>
    <style>
      .cls-1 {
        fill: #213059;
        stroke-width: 0px;
      }
    </style>
  </defs>
  <g id="Camada_1-2" data-name="Camada 1">
    <g>
      <path class="cls-1" d="M109.46,80.42c0,17.33.03,34.66,0,51.99-.02,9.83-4.9,14.65-14.78,14.66-26.83.01-53.65,0-80.48-.02-9.21,0-14.16-4.88-14.17-14.18C-.02,97.87,0,62.88.05,27.89c.02-10.62,9.3-17.2,19.27-13.84,1.03.35,1.8.88,1.81,2.05,0,1.17-.71,1.82-1.79,2.04-.65.13-1.32.11-1.99.15-11.61.68-12.85,2.01-12.84,13.83,0,33.16,0,66.32,0,99.47,0,8.17,2.48,10.75,10.72,10.77,26.49.05,52.99.04,79.48,0,7.46-.01,9.96-2.51,9.97-9.85.02-34.66.02-69.32,0-103.97,0-7.41-2.69-10.04-10.28-10.28-1-.03-2-.04-3-.07-1.4-.05-2.15-.73-2.09-2.19.05-1.17.66-1.8,1.82-1.95,9.06-1.14,18.17,1.31,18.28,13.38.15,17.66.04,35.32.04,52.99Z"/>
      <path class="cls-1" d="M28.62,84.97c-1.96,2.24-3.92,4.49-5.9,6.71-1.07,1.2-2.42,2.18-3.84.86-1.35-1.26-.78-2.76.41-3.95,10.25-10.22,20.43-20.51,30.83-30.58,2.87-2.78,6.54-2.69,9.46.16,10.23,10.01,20.32,20.15,30.46,30.25,1.12,1.11,2.13,2.34.67,3.84-1.38,1.42-2.69.8-3.87-.42-2.2-2.27-4.4-4.53-6.52-6.72-1.9.65-1.14,2.02-1.15,3.03-.05,7.99-.09,15.98,0,23.97.04,3.32-1.2,4.84-4.69,4.81-13.31-.1-26.63-.11-39.94,0-3.64.03-4.56-1.71-4.53-4.91.08-8.76.03-17.52.03-26.28-.48-.26-.95-.52-1.43-.78ZM74.44,95.43c0-4.33-.11-8.66.05-12.99.08-2.19-.61-3.77-2.16-5.27-4.79-4.63-9.53-9.31-14.14-14.11-2.32-2.42-4.24-2.69-6.69-.15-4.85,5.04-9.84,9.94-14.82,14.84-1.38,1.35-2.15,2.76-2.13,4.8.09,8.83.17,17.66-.03,26.48-.08,3.46,1.95,3.11,4.17,3.16,2.32.05,4.26.13,4.08-3.24-.23-4.32-.27-8.67.05-12.98.59-7.73,5.45-12.2,12.56-12,6.74.19,11.21,4.96,11.5,12.49.16,4.16.21,8.33,0,12.49-.16,3.34,1.8,3.18,4.12,3.26,2.49.09,3.61-.54,3.48-3.29-.21-4.49-.06-8.99-.07-13.49ZM47.49,102.39h-.02c0,2.33.14,4.67-.04,6.99-.21,2.78,1.52,3.23,3.42,2.72,3.81-1.02,9.51,2.96,11.23-2.21,1.5-4.48.61-9.91.11-14.86-.41-4.1-3.33-6.52-7.5-6.66-3.81-.13-6.93,3.29-7.19,7.53-.13,2.16-.02,4.33-.02,6.49Z"/>
      <path class="cls-1" d="M54.92,38.27c-7.5,0-14.99.05-22.49-.02-5.89-.05-8.07-2.26-8.19-8.16-.07-3.16-.07-6.33,0-9.49.14-5.66,2.54-8.36,8.25-8.25,4.55.1,7.7-.25,9.87-5.38C44.57,1.75,49.83-.3,55.7.04c5.72.33,9.97,3.17,12.17,8.19,1.36,3.11,2.78,4.16,6.16,4.08,9.43-.21,11.36,1.91,11.38,11.39.02,14.16-.39,14.57-14.5,14.57-5.33,0-10.66,0-15.99,0ZM54.35,33.95c6.83,0,13.67-.19,20.49.07,4.28.16,5.9-1.22,5.84-5.7-.16-11,.03-11.09-10.97-11.18-2.95-.02-4.51-.7-5.11-3.92-1.03-5.52-4.98-8.73-9.92-8.75-4.89-.02-9.21,3.35-9.98,8.75-.49,3.46-2.13,3.89-4.98,3.9-12.39.08-11.06-2.52-11.19,12.13-.03,3.5,1.53,4.75,4.83,4.71,7-.08,13.99-.02,20.99-.01Z"/>
    </g>
  </g>
</svg>