<?xml version="1.0" encoding="UTF-8"?>
<svg id="Camada_2" data-name="Camada 2" xmlns="http://www.w3.org/2000/svg" viewBox="0 0 149.27 130.97">
  <defs>
    <style>
      .cls-1 {
        fill: #213059;
        stroke-width: 0px;
      }
    </style>
  </defs>
  <g id="Camada_1-2" data-name="Camada 1">
    <g>
      <g>
        <path class="cls-1" d="M74.67,129.97c-23.75,0-47.49,0-71.24,0-1.04,0-2.37.18-2.38-1.3-.01-1.49,1.33-1.33,2.37-1.33,36.08,0,72.16,0,108.23,0q2.61,0,1.31-2.28c-6.33-11.08-12.68-22.15-18.99-33.24-1.53-2.69-3.72-3.93-6.83-3.93-27.89.03-55.77.02-83.66.02-1.04,0-2.23.2-2.46-1.27-.15-.96.64-1.35,2.48-1.35,22.35,0,44.71,0,67.06.01.22,0,.44-.02.65,0,1.09.1,1.15-.29.65-1.16-6.67-11.64-13.31-23.3-19.98-34.93-1.36-2.36-3.52-3.38-6.22-3.38-14.07.01-28.15,0-42.22,0-1.03,0-2.37.19-2.39-1.3-.01-1.51,1.34-1.31,2.37-1.31,8.67,0,17.34,0,26.01,0,1.74,0,1.74,0,.91-1.46-6.5-11.38-13.02-22.76-19.5-34.15-1.48-2.6-3.63-3.9-6.62-3.85-.65.01-1.31.03-1.96-.03-.73-.07-1.23-.5-1.24-1.27,0-.76.49-1.17,1.22-1.29,4.53-.74,8.54,1.12,10.83,5.13,6.77,11.83,13.54,23.67,20.26,35.53.59,1.05,1.24,1.46,2.45,1.42,3.31-.08,6.62-.03,9.93-.03,3.93,0,6.81,1.76,8.75,5.17,6.7,11.77,13.45,23.52,20.11,35.31.7,1.24,1.47,1.67,2.86,1.62,3.35-.11,6.71-.02,10.06-.04,1.6,0,3.16.23,4.53,1.03.91.53,1.25.21,1.69-.56,2.96-5.23,5.95-10.44,8.93-15.66,1.02-1.78,2.02-3.56,3.06-5.33,1.55-2.63,3.87-3.93,6.91-3.94,2.66-.01,5.32-.03,7.97.01.81.01,1.24-.28,1.63-.98,5.24-9.24,10.57-18.44,15.76-27.71,2.01-3.59,5.01-4.88,8.92-4.56.81.06,1.36.48,1.37,1.28,0,.8-.56,1.39-1.35,1.28-4.08-.53-5.97,1.92-7.72,5.1-4.45,8.09-9.12,16.06-13.7,24.07q-.85,1.5.93,1.5c6.41,0,12.81,0,19.22,0,.39,0,.78,0,1.18.01.86.04,1.46.47,1.44,1.35-.02.81-.59,1.22-1.41,1.23-.39,0-.78,0-1.18,0-10.89,0-21.79.02-32.68-.01-2.43,0-4.13,1-5.32,3.1-3.97,7.01-7.97,14.01-12,20.99-.48.83-.53,1.42.04,2.22.7.99,1.3,2.07,1.83,3.16.44.91,1.02,1.2,2.04,1.2,15.42-.03,30.85-.02,46.27-.02,1.05,0,2.37-.15,2.37,1.32,0,1.51-1.35,1.29-2.38,1.3-14.73,0-29.46,0-44.18.01-1.89,0-1.91.01-1,1.61,5.4,9.46,10.81,18.9,16.17,28.38.42.74.93.64,1.51.64,8.98,0,17.95,0,26.93,0,.57,0,1.14-.02,1.7.03.74.07,1.27.5,1.28,1.24,0,.79-.52,1.28-1.32,1.35-.52.05-1.05.02-1.57.02-23.57,0-47.15,0-70.72,0Z"/>
        <path class="cls-1" d="M146.23,130.97c-.14,0-.29,0-.44,0h-.41s-82.59,0-82.59,0H3.42s-.29,0-.29,0c-.79.01-1.77.03-2.46-.65-.41-.4-.62-.96-.63-1.65,0-.7.2-1.26.61-1.67.7-.69,1.69-.68,2.48-.67h.27c36.08,0,72.15,0,108.23,0,.31,0,.62,0,.88,0-.13-.23-.28-.5-.43-.77l-5.09-8.9c-4.64-8.11-9.28-16.22-13.9-24.35-1.35-2.37-3.18-3.43-5.95-3.43h-.01c-22.08.03-44.15.02-66.23.02H3.47s-.32,0-.32,0c-.9.02-2.79.06-3.13-2.12-.12-.78.16-1.3.41-1.6.54-.63,1.48-.91,3.05-.91h67.04s.21,0,.21,0h.04c-2.89-5.05-5.78-10.1-8.66-15.15-3.7-6.48-7.41-12.97-11.12-19.44-1.11-1.93-2.86-2.87-5.34-2.87h0c-12.55,0-25.1,0-37.66,0H3.43s-.3,0-.3,0c-.78.01-1.75.03-2.45-.64-.41-.4-.62-.96-.63-1.65,0-.7.2-1.27.61-1.67.69-.68,1.66-.67,2.44-.65h.31s26.01,0,26.01,0h.02l-4.7-8.22c-4.93-8.63-9.87-17.26-14.78-25.9-1.3-2.28-3.08-3.35-5.59-3.35-.05,0-.09,0-.14,0h-.24c-.59.01-1.2.03-1.83-.03C.86,4.59.02,3.7.02,2.45,0,1.26.8.38,2.07.17c4.95-.81,9.38,1.29,11.87,5.62,7.56,13.21,13.9,24.3,20.26,35.53.42.75.75.93,1.55.92,2.38-.06,4.79-.05,7.12-.04.95,0,1.87,0,2.84,0h0c4.24,0,7.47,1.91,9.61,5.67,2.25,3.95,4.5,7.89,6.75,11.83,4.47,7.82,8.93,15.64,13.36,23.48.52.92.96,1.15,1.96,1.12,2.19-.07,4.4-.06,6.55-.05,1.18,0,2.36.01,3.54,0,2.02-.02,3.68.37,5.04,1.17.06.04.11.06.15.08.04-.06.09-.14.16-.27,2.3-4.06,4.61-8.11,6.93-12.16l2.84-4.98c.74-1.29,1.47-2.59,2.23-3.87,1.72-2.92,4.33-4.42,7.77-4.44h.71c2.38-.02,4.85-.03,7.28.01.39,0,.5-.04.75-.47,2-3.52,4.01-7.04,6.02-10.56,3.21-5.61,6.52-11.41,9.74-17.14,2.11-3.77,5.34-5.43,9.87-5.07,1.38.11,2.28,1,2.29,2.27,0,.7-.27,1.35-.75,1.78-.46.41-1.07.59-1.72.51-3.29-.43-4.89,1.28-6.71,4.59-3.18,5.78-6.52,11.59-9.75,17.2-1.32,2.29-2.64,4.59-3.95,6.88,0,0,0,0,0,0h19.54c.32,0,.64,0,.97.01,1.49.08,2.42,1.01,2.38,2.38-.04,1.3-1,2.18-2.39,2.2-.4,0-.79,0-1.19,0h-8.58c-8.04,0-16.07.01-24.11-.01h-.02c-2.04,0-3.41.8-4.42,2.59-3.99,7.06-8.03,14.12-12,20.99-.33.57-.29.74,0,1.14.66.92,1.28,2.01,1.91,3.31.24.49.41.63,1.13.63h0c12.26-.03,24.53-.02,36.79-.02h9.48s.25,0,.25,0c.8,0,1.79-.02,2.5.67.41.41.62.96.62,1.65,0,.7-.21,1.26-.62,1.66-.69.68-1.65.66-2.43.64h-.33s-44.18,0-44.18,0h-.19s.04.08.07.11l4.29,7.51c3.97,6.95,7.94,13.9,11.89,20.87.06.1.09.13.09.13.04.01.23,0,.35,0h.2c6.28,0,12.57,0,18.85,0h8.44c.46,0,.94,0,1.43.04,1.3.12,2.18,1.02,2.18,2.23,0,1.29-.89,2.23-2.23,2.35-.27.02-.54.03-.8.03ZM145.38,128.96h.44c.35,0,.69.02,1.04-.01.41-.04.41-.19.41-.35,0-.09,0-.22-.37-.25-.39-.04-.8-.04-1.23-.03h-8.46c-6.28,0-12.57,0-18.85,0h-.16c-.54.01-1.56.03-2.22-1.15-3.94-6.97-7.91-13.92-11.88-20.87l-4.29-7.51c-.58-1.02-.96-1.69-.55-2.4.41-.71,1.17-.71,2.42-.71h44.18s.37,0,.37,0c.3,0,.84.02.99-.07,0,0,.02-.07.02-.23,0-.18-.03-.24-.04-.24-.13-.1-.74-.09-1.06-.08h-.28s-9.48,0-9.48,0c-12.27,0-24.53,0-36.79.02h-.01c-1.44,0-2.34-.54-2.93-1.76-.58-1.2-1.15-2.19-1.74-3.02-.98-1.38-.57-2.49-.1-3.3,3.97-6.87,8-13.93,11.99-20.98,1.37-2.43,3.39-3.61,6.16-3.61h.03c8.03.02,16.07.02,24.1.02h8.58c.39,0,.77,0,1.16-.01.42,0,.42-.12.42-.26,0-.17,0-.3-.49-.33-.28-.01-.57-.01-.85-.01h-19.49c-1.2,0-1.92,0-2.32-.69-.4-.69-.03-1.33.52-2.31,1.31-2.3,2.63-4.59,3.96-6.89,3.23-5.61,6.57-11.41,9.74-17.17,1.67-3.05,3.87-6.24,8.72-5.61.06,0,.11,0,.14-.02.04-.03.08-.12.08-.26,0-.14,0-.26-.45-.29-3.71-.3-6.25.99-7.97,4.06-3.22,5.74-6.54,11.54-9.74,17.16-2.01,3.52-4.02,7.03-6.02,10.56-.6,1.05-1.36,1.51-2.52,1.49-2.41-.04-4.86-.03-7.24-.01h-.72c-2.71.02-4.69,1.15-6.05,3.45-.75,1.27-1.48,2.56-2.21,3.85l-2.84,4.98c-2.31,4.04-4.63,8.09-6.92,12.15-.21.37-.6,1.07-1.36,1.27-.68.19-1.3-.11-1.7-.34-1.06-.62-2.3-.89-4.02-.89-1.19,0-2.38,0-3.57,0-2.13-.01-4.32-.02-6.47.05-1.8.05-2.88-.56-3.76-2.13-4.43-7.84-8.89-15.66-13.35-23.47-2.25-3.94-4.5-7.89-6.75-11.83-1.79-3.14-4.36-4.66-7.88-4.66,0,0-.03,0-.04,0-.94,0-1.88,0-2.81,0-2.31-.01-4.71-.02-7.06.04-1.51.04-2.55-.54-3.34-1.93-6.36-11.23-12.7-22.32-20.26-35.52C10.12,3.15,6.55,1.46,2.4,2.15c-.39.06-.38.16-.38.3,0,.14,0,.25.33.28.51.05,1.04.04,1.6.03h.25c3.27-.06,5.83,1.41,7.5,4.35,4.91,8.64,9.85,17.27,14.78,25.9l4.72,8.26c.54.95.91,1.58.51,2.27-.4.69-1.11.69-2.28.69H3.41s-.36,0-.36,0c-.3,0-.85-.02-.99.07,0,0-.02.08-.02.23,0,.15.03.23.04.24.12.08.7.07,1.01.07h.34s4.56,0,4.56,0c12.55,0,25.11,0,37.66,0h.01c3.22,0,5.6,1.3,7.08,3.88,3.72,6.48,7.42,12.96,11.13,19.44,2.95,5.16,5.9,10.33,8.86,15.49.21.37.72,1.25.23,2.01-.48.76-1.46.67-1.83.64-.1,0-.19,0-.29,0-.09,0-.18,0-.27,0H3.5s0-.01,0-.01c-.97,0-1.35.12-1.49.18.06.41.11.46,1.11.44h.36s17.43,0,17.43,0c22.07,0,44.15,0,66.23-.02h.01c3.48,0,5.99,1.45,7.69,4.44,4.62,8.12,9.26,16.23,13.9,24.35l5.09,8.9c.84,1.48,1.27,2.22.81,3-.45.78-1.29.78-2.97.78-36.1,0-72.18,0-108.25,0h-.3c-.31,0-.91-.01-1.05.09,0,0-.02.08-.02.23,0,.15.03.23.04.24.12.09.71.08,1.02.07h.33s71.24,0,71.24,0h70.72Z"/>
      </g>
      <g>
        <path class="cls-1" d="M47.2,110.7c-14.59,0-29.18,0-43.76,0-1.03,0-2.37.21-2.4-1.28-.02-1.51,1.31-1.32,2.35-1.32,29.26,0,58.53,0,87.79,0,.35,0,.71,0,1.04.07.62.15.97.57.99,1.21.02.66-.36,1.08-.95,1.25-.37.1-.78.08-1.17.08-14.63,0-29.26,0-43.9,0Z"/>
        <path class="cls-1" d="M2.72,111.71c-.69,0-1.46-.08-2.04-.64-.41-.4-.63-.95-.64-1.64-.01-.71.19-1.27.6-1.69.69-.69,1.66-.67,2.45-.66h.3c29.26,0,58.53,0,87.79,0h.1c.35,0,.75,0,1.17.1,1.07.25,1.73,1.06,1.76,2.16.03,1.08-.61,1.94-1.68,2.24-.44.12-.86.12-1.24.11h-.19s-43.9,0-43.9,0c-14.59,0-29.17,0-43.76,0h-.33c-.13,0-.26.01-.39.01ZM2.06,109.17s-.02.08-.01.23c0,.15.03.23.04.24.12.08.68.06.99.06h.37c14.59,0,29.17,0,43.76,0h43.9s.22,0,.22,0c.26,0,.51,0,.67-.04.23-.06.23-.13.22-.26,0-.17-.03-.22-.22-.27-.19-.04-.44-.05-.7-.04h-.11c-29.26,0-58.53,0-87.79,0h-.33c-.3,0-.85-.02-1,.07Z"/>
      </g>
      <g>
        <path class="cls-1" d="M25.36,64.41c7.4,0,14.8,0,22.2,0,.43,0,.88-.03,1.3.08.6.15.97.57.96,1.23-.01.65-.38,1.07-.98,1.23-.37.1-.78.06-1.17.06-14.8,0-29.6,0-44.39,0-.35,0-.7.02-1.04-.02-.75-.09-1.21-.53-1.21-1.29,0-.77.5-1.18,1.24-1.26.47-.05.96-.03,1.43-.03,7.22,0,14.45,0,21.67,0Z"/>
        <path class="cls-1" d="M48.18,68.02c-.1,0-.19,0-.28,0h-.24s-44.62,0-44.62,0c-.31,0-.63,0-.93-.03-1.26-.16-2.09-1.05-2.09-2.27,0-1.23.83-2.12,2.13-2.26.42-.05.82-.04,1.21-.04h.34s43.87,0,43.87,0h.22c.4,0,.86-.01,1.32.11,1.08.27,1.73,1.13,1.71,2.22-.02,1.07-.68,1.9-1.72,2.17-.32.08-.62.1-.9.1ZM47.66,66.01h.28c.25,0,.48.01.64-.03.21-.05.23-.12.23-.28,0-.13,0-.19-.2-.24-.21-.05-.5-.05-.8-.05h-.25s-44.23,0-44.23,0c-.32,0-.65-.01-.97.02-.35.04-.35.13-.35.26,0,.16,0,.26.34.3.22.03.44.02.67.02h.25s44.39,0,44.39,0Z"/>
      </g>
      <g>
        <path class="cls-1" d="M128.89,78.37c5.7,0,11.41,0,17.11,0,.35,0,.7-.03,1.04.03.73.11,1.23.54,1.23,1.3,0,.75-.49,1.19-1.23,1.27-.39.04-.78.03-1.17.03-11.36,0-22.73,0-34.09,0-.39,0-.79,0-1.17-.08-.63-.11-1.02-.54-1.05-1.17-.03-.7.39-1.16,1.05-1.3.51-.1,1.04-.09,1.56-.09,5.57,0,11.15,0,16.72,0h0Z"/>
        <path class="cls-1" d="M146.34,82c-.08,0-.16,0-.24,0h-.24c-11.37,0-22.73,0-34.09,0-.43,0-.89-.01-1.34-.09-1.09-.19-1.82-1.02-1.87-2.1-.05-1.18.67-2.09,1.86-2.32.54-.11,1.09-.1,1.57-.11h.19c4.4,0,8.8,0,13.2,0h20.87c.29,0,.61,0,.95.04,1.26.19,2.08,1.09,2.08,2.28,0,1.23-.83,2.12-2.12,2.27-.27.03-.54.04-.81.04ZM145.86,79.99h.26c.27,0,.54,0,.8-.02.35-.04.35-.14.35-.28,0-.12,0-.25-.38-.31-.2-.03-.41-.02-.61-.02h-.28s-20.63,0-20.63,0c-4.4,0-8.8,0-13.2,0h-.19c-.43,0-.83,0-1.17.07-.26.05-.26.15-.25.27,0,.12.02.19.22.23.29.05.61.06.99.06,11.36,0,22.73,0,34.09,0Z"/>
      </g>
      <g>
        <path class="cls-1" d="M131.78,113.33c-4.79,0-9.58,0-14.37,0-.39,0-.79.02-1.17-.07-.62-.14-.99-.56-1-1.2,0-.63.34-1.09.95-1.25.37-.1.78-.08,1.17-.08,9.54,0,19.07,0,28.61,0,1.02,0,2.25-.1,2.28,1.29.03,1.42-1.21,1.31-2.23,1.31-4.75,0-9.49,0-14.24,0h0Z"/>
        <path class="cls-1" d="M128.7,114.33h-11.29s-.17,0-.17,0c-.36,0-.78,0-1.21-.09-1.09-.24-1.77-1.07-1.78-2.17,0-1.09.64-1.95,1.69-2.22.45-.12.89-.11,1.26-.11h.16s28.79,0,28.79,0c.92,0,3.05-.02,3.09,2.27.01.69-.19,1.25-.59,1.65-.68.69-1.66.68-2.45.68h-.19c-3.56,0-7.12,0-10.68,0h-6.64ZM117.41,112.32h13.37s0,0,0,0h4.56c3.56,0,7.12,0,10.68,0h.2c.3,0,.86,0,1.01-.08,0,0,.01-.07.01-.21,0-.14-.03-.2-.03-.22-.13-.1-.73-.09-1.05-.09h-.19s-28.61,0-28.61,0h-.18c-.28,0-.55,0-.73.04-.17.04-.21.1-.21.27,0,.13,0,.19.21.24.21.05.48.04.77.04h.19Z"/>
      </g>
      <g>
        <path class="cls-1" d="M6.29,25.41c-1.22,0-2.44,0-3.66,0-.89,0-1.61-.34-1.61-1.31,0-.98.72-1.3,1.61-1.3,2.53,0,5.05,0,7.58,0,.84,0,1.53.33,1.55,1.23.02.94-.63,1.37-1.55,1.37-1.31,0-2.61,0-3.92,0,0,0,0,0,0,0Z"/>
        <path class="cls-1" d="M5.16,26.41h-2.54c-1.6,0-2.6-.89-2.61-2.31,0-.81.33-1.32.61-1.6.46-.47,1.14-.7,2-.7h7.58c1.52,0,2.52.86,2.55,2.2.02.85-.32,1.38-.61,1.68-.46.47-1.13.72-1.94.72h-5.05ZM2.63,23.8c-.39,0-.55.08-.58.11,0,0-.03.06-.03.18,0,.16,0,.32.62.32h2.66s0,0,0,0h4.92c.31,0,.47-.07.51-.12.03-.03.05-.12.04-.23,0-.11,0-.25-.55-.25H2.63s0,0,0,0Z"/>
      </g>
      <g>
        <path class="cls-1" d="M143.87,48.12c-.91,0-1.83.01-2.74,0-.84-.01-1.5-.39-1.52-1.28-.02-.88.61-1.32,1.46-1.33,1.92-.02,3.83-.02,5.75,0,.84.01,1.48.43,1.44,1.33-.03.88-.67,1.27-1.52,1.27-.96,0-1.92,0-2.87,0Z"/>
        <path class="cls-1" d="M142.21,49.12c-.37,0-.74,0-1.11,0-1.49-.02-2.47-.91-2.5-2.26-.01-.65.2-1.21.61-1.63.45-.46,1.08-.71,1.84-.72,2.07-.02,3.96-.02,5.77,0,.77.01,1.41.26,1.85.73.28.3.61.82.58,1.64-.05,1.34-1.03,2.22-2.51,2.24-.69,0-1.37,0-2.06,0h-.83s-.88,0-.88,0c-.26,0-.52,0-.78,0ZM143.89,46.49c-.9,0-1.83,0-2.81.02-.26,0-.39.07-.43.11-.04.04-.04.17-.04.2,0,.14,0,.29.53.3.61.01,1.23,0,1.84,0h.89s.83,0,.83,0c.68,0,1.35,0,2.03,0,.52,0,.52-.15.53-.31,0-.11-.01-.17-.03-.19-.03-.03-.16-.1-.43-.1-.95-.01-1.91-.02-2.92-.02Z"/>
      </g>
    </g>
  </g>
</svg>