<?xml version="1.0" encoding="UTF-8"?>
<svg id="Camada_2" data-name="Camada 2" xmlns="http://www.w3.org/2000/svg" viewBox="0 0 146.28 147.2">
  <defs>
    <style>
      .cls-1 {
        fill: #213059;
        stroke-width: 0px;
      }
    </style>
  </defs>
  <g id="Camada_1-2" data-name="Camada 1">
    <g>
      <path class="cls-1" d="M31.22,28.65c0,19.35.02,37.13-.03,54.92,0,2.22.91,2.86,2.98,2.81,4.66-.1,9.33-.11,13.99,0,5.11.13,6.94,1.94,6.96,6.98.07,11.66,0,23.32.04,34.98.02,4.52-2.08,6.84-6.63,6.84-13.99,0-27.99,0-41.98,0-4.57,0-6.6-2.23-6.56-6.81.1-11.66,0-23.32.06-34.98.02-5.4,1.69-6.99,7.28-7.05,5.16-.06,10.33-.14,15.49.05,2.9.11,4.13-.57,4.11-3.81-.14-18.66-.11-37.31-.04-55.97,0-2.34-.62-4.17-2.22-5.83-1.38-1.44-2.63-3.01-3.87-4.58-3.74-4.75-3.73-9.81-.04-13.47,3.72-3.68,8.85-3.69,13.43.21,15.34,13.07,30.69,26.12,45.86,39.38,3.11,2.72,6.17,3.92,10.29,3.79,8.65-.27,17.32-.14,25.98-.06,5.43.05,6.84,1.44,6.93,6.85.1,5.83.12,11.66-.01,17.49-.06,2.78.9,3.88,3.75,3.76,4.16-.18,8.33,0,12.49-.06,4.51-.07,6.83,1.93,6.77,6.59-.08,6,.1,12-.08,17.99-.23,7.38-6.04,13.37-13.43,13.45-16.66.18-33.32.17-49.97,0-8.54-.08-14.65-7.17-13.59-16.19.99-8.4,2.57-16.77,4.47-25.02,1.66-7.2,1.09-15.02,5.78-21.45,1.18-1.62-.79-2.27-1.68-3.03-15.4-13.25-30.84-26.46-46.26-39.68-2.37-2.04-4.89-3.2-7.47-.56-2.58,2.65-1.26,5.15.72,7.5,13.51,16.05,27.02,32.11,40.52,48.16.75.89,1.6,1.71,2.26,2.66.7,1.01,1.02,2.23,0,3.18-1.14,1.06-2.47.92-3.55-.17-.94-.94-1.75-2-2.61-3.02-9.73-11.56-19.46-23.13-30.18-35.86ZM109.29,78.75c-8.99,0-17.98.25-26.96-.11-4.42-.17-6.33,1.04-6.49,5.63-.12,3.44-1.26,6.84-1.81,10.28-1.31,8.29,2.35,12.93,10.66,13.02,15.31.15,30.62.13,45.93,0,7.32-.06,11.03-3.8,11.28-11.09.16-4.49-.14-8.99.07-13.48.15-3.22-.89-4.4-4.24-4.33-9.48.19-18.97.07-28.46.06ZM98.65,74.12c5.65,0,11.31-.09,16.96.04,2.39.05,3.26-.83,3.22-3.17-.08-5.32-.17-10.65.06-15.96.15-3.5-1.17-4.66-4.62-4.58-8.48.19-16.97.3-25.43,0-4.63-.17-6.78,2.12-7.71,6.05-1.1,4.68-1.86,9.44-2.84,14.15-.52,2.48-.02,3.66,2.9,3.55,5.81-.21,11.64-.06,17.46-.07ZM4.69,94.68v32.92c6.25-5.34,11.86-10.17,17.52-14.95,1.12-.95,1.43-1.77.22-2.8-5.73-4.9-11.46-9.8-17.74-15.17ZM46.88,91.4H8.16c6.45,5.57,12.18,10.47,17.85,15.44,1.36,1.19,2.27.64,3.4-.34,5.48-4.79,11.02-9.53,17.48-15.1ZM50.25,94.77c-6.15,5.25-11.56,9.84-16.92,14.49-.89.77-2.58,1.51-.78,3.06,5.7,4.9,11.38,9.8,17.7,15.24v-32.79ZM46.11,130.24c-6.42-5.53-11.77-10.14-17.12-14.74-.81-.7-1.68-1.13-2.64-.3-5.55,4.79-11.09,9.59-17.39,15.04h37.15Z"/>
      <path class="cls-1" d="M103.9,147.16c-8.65,0-17.3.07-25.95-.03-9.22-.1-15.79-6.38-15.87-15-.09-9.07,6.22-15.67,15.66-15.77,17.63-.17,35.27-.18,52.9,0,9.39.09,15.72,6.76,15.6,15.8-.11,8.69-6.61,14.9-15.89,14.99-8.82.09-17.63.02-26.45.01ZM104.15,142.34c8.81,0,17.63.08,26.44-.03,6.54-.08,11.04-4.34,11.16-10.27.13-6.07-4.62-10.83-11.12-10.85-17.63-.07-35.26-.06-52.89,0-6.55.02-11.26,4.72-11.12,10.82.13,6.07,4.51,10.24,11.07,10.3,8.81.09,17.63.02,26.44.03Z"/>
      <path class="cls-1" d="M82.28,135.83c-2.57-.62-4.3-1.75-4.03-4.43.24-2.35,1.75-3.51,4.05-3.42,2.61.1,3.93,1.64,3.76,4.2-.16,2.41-1.98,3.19-3.79,3.66Z"/>
      <path class="cls-1" d="M129.04,131.91c-.5,2.43-1.89,4.02-4.4,3.77-2.17-.22-3.62-1.58-3.51-4.02.12-2.71,1.73-3.83,4.25-3.67,2.37.14,3.4,1.72,3.67,3.92Z"/>
      <path class="cls-1" d="M107.36,131.25c.02,2.95-1.35,4.33-3.56,4.43-2.47.11-4.1-1.34-4.09-3.89.01-2.53,1.52-3.94,4.1-3.84,2.38.09,3.47,1.55,3.55,3.3Z"/>
    </g>
  </g>
</svg>