<?xml version="1.0" encoding="UTF-8"?>
<svg id="Camada_2" data-name="Camada 2" xmlns="http://www.w3.org/2000/svg" viewBox="0 0 147.18 142.85">
  <defs>
    <style>
      .cls-1 {
        fill: #213059;
        stroke-width: 0px;
      }
    </style>
  </defs>
  <g id="Camada_1-2" data-name="Camada 1">
    <g>
      <path class="cls-1" d="M39.87,138.22c33.27,0,65.22,0,97.17,0,5.04,0,5.86-3.15,5.85-7.34-.07-31.66-.12-63.32-.02-94.97.05-14.06.31-13.24-13.46-13.2-21.99.06-43.99.02-65.98.01-1.33,0-2.67.01-3.99-.1-1.28-.1-2.25-.7-2.21-2.17.05-1.45,1.07-1.97,2.32-2.1.99-.1,2-.11,2.99-.11,24.49,0,48.99-.03,73.48.03,8.8.02,11.16,2.52,11.16,11.38,0,33.99,0,67.98-.02,101.97,0,8.33-2.69,11.07-11.02,11.09-36.99.07-73.98.11-110.97.14-13.62.01-24.78-10.27-24.92-24.07-.32-31.65-.34-63.32,0-94.97C.41,10.27,11.76-.1,24.94,0c13.9.11,24.77,10.67,24.85,24.71.16,31.16.1,62.32.02,93.48-.02,7.7-3.27,14.12-9.94,20.03ZM44.89,102.86c.09-1.52.18-2.29.18-3.07,0-24.96.07-49.91-.02-74.87-.04-11.48-9.01-20.36-20.2-20.34-11.05.01-19.85,9.07-19.87,20.62-.04,24.46-.01,48.92.05,73.37,0,1.18-.73,2.66.74,3.6,13.25-11.86,24.98-11.85,39.11.68ZM25.52,98.29c-11.26-.25-20.26,8.22-20.51,19.33-.25,11.04,8.43,20.21,19.47,20.56,10.84.34,20.32-8.68,20.55-19.54.24-11.14-8.34-20.1-19.51-20.35Z"/>
      <path class="cls-1" d="M68.2,75.13c-2.83,2.5-4.91,4.31-6.95,6.16-1.33,1.21-2.79,2.21-4.27.49-1.31-1.51-.17-2.79.98-3.83,10.35-9.4,20.73-18.76,31.05-28.2,2.06-1.88,3.71-1.52,5.64.17,10.49,9.25,21.02,18.44,31.54,27.65,1.3,1.13,2.79,2.45,1.38,4.15-1.66,2-3.25.47-4.66-.75-2.01-1.74-4.01-3.49-5.98-5.21-1.88.85-1.07,2.39-1.08,3.55-.08,6.83-.05,13.65-.04,20.48,0,4.27-1.66,7.24-6.3,7.27-11.65.1-23.31.07-34.96-.02-4.63-.04-6.36-2.89-6.35-7.2.03-7.91,0-15.82,0-24.71ZM111.03,86.17c0-4.16-.1-8.32.04-12.47.07-2.18-.55-3.73-2.26-5.17-4.96-4.18-9.81-8.48-14.63-12.82-1.58-1.42-2.7-1.94-4.55-.17-4.8,4.6-9.8,8.99-14.79,13.38-1.38,1.21-1.86,2.55-1.85,4.35.07,8.65.08,17.29.01,25.94-.02,2.16.37,3.36,2.96,3.36,2.44,0,3.18-.85,3.1-3.18-.14-3.65-.13-7.32,0-10.97.26-7.57,5.71-12.92,12.99-12.91,7.3.02,12.68,5.39,12.89,12.99.1,3.49.02,6.98.01,10.48,0,1.83-.31,3.64,2.64,3.59,2.55-.04,3.57-.8,3.47-3.43-.16-4.32-.04-8.65-.04-12.97ZM83.92,93.62q-.12,8.87,8.61,8.88c1.66,0,3.32-.07,4.97.03,1.84.11,2.76-.51,2.72-2.49-.1-4.31.2-8.64-.2-12.92-.42-4.43-3.47-6.64-7.78-6.9-4.21-.26-7.82,2.78-8.28,6.95-.24,2.13-.04,4.3-.04,6.46Z"/>
      <path class="cls-1" d="M24.77,105.47c7.25-.1,13.14,5.61,13.16,12.74.02,6.93-5.67,12.63-12.69,12.73-7.25.11-13.16-5.65-13.11-12.77.05-7.04,5.58-12.61,12.64-12.7ZM33.04,118.24c.02-4.66-3.56-8.27-8.13-8.19-4.35.07-7.87,3.55-7.99,7.89-.12,4.53,3.48,8.4,7.92,8.51,4.42.11,8.17-3.65,8.19-8.2Z"/>
    </g>
  </g>
</svg>