<?xml version="1.0" encoding="UTF-8"?>
<svg id="Camada_2" data-name="Camada 2" xmlns="http://www.w3.org/2000/svg" viewBox="0 0 143.18 143.37">
  <defs>
    <style>
      .cls-1 {
        fill: #213059;
        stroke-width: 0px;
      }
    </style>
  </defs>
  <g id="Camada_1-2" data-name="Camada 1">
    <g>
      <path class="cls-1" d="M143.18,71.78c0,22.67,0,45.34,0,68.01,0,2.93-.64,3.58-3.59,3.58-45.34,0-90.68,0-136.02,0-2.94,0-3.58-.64-3.58-3.58C0,95.24,0,50.7,0,6.15c0-2.65.25-2.99,2.77-3.84,1.79-.6,3.59-1.15,5.36-1.81,1.18-.44,2.19-.29,3.25.36,3.09,1.9,6.23,3.72,9.31,5.63.76.47,1.39.5,2.2.19,5.14-1.97,10.32-3.86,15.46-5.85,1.33-.52,2.69-.54,4.07-.68,5.7-.61,10.87.67,15.72,3.71,2,1.26,4.26,2.89,6.4,2.9,2.09,0,4.28-1.68,6.25-2.91C75.58.84,80.69-.28,86.35.09c3.23.21,6.04,1.49,9.02,2.33,2,.57,3.98,1.26,5.93,1.98.83.31,1.5.21,2.25-.18,2.33-1.21,4.72-2.34,7.05-3.55,1.07-.56,2.04-.56,3.11,0,2.33,1.21,4.71,2.34,7.05,3.55.85.44,1.62.52,2.56.28,5.33-1.37,10.68-2.69,16.03-4.02,2.72-.67,3.84.21,3.84,2.99,0,22.77,0,45.54,0,68.31ZM5.08,82.6c.68-.74,1.33-1.39,1.91-2.11.99-1.23,2.23-1.66,3.8-1.58,2.28.1,4.57.07,6.86.01,1.27-.03,2.44.2,3.62.68,6.62,2.68,13.27,5.3,19.89,8,.93.38,1.52.31,2.19-.45,1.02-1.15,2.27-2.11,3.23-3.3,1.6-2.01,3.58-2.46,6.09-2.62,4.02-.27,7.2.68,9.54,4.03.5.72,1.2.88,2.06.88,4.92-.04,9.84-.04,14.76,0,1.11,0,2.18-.09,3.17-.62,6.86-3.61,14.16-4.92,21.86-4.19.89.08,1.76.15,2.62.44,6.3,2.12,12.61,4.22,18.92,6.32.7.23,1.4.44,2.17.43,3.13-.03,6.26-.05,9.4,0,.94.02,1.27-.21,1.26-1.22-.03-14.32-.03-28.63,0-42.95,0-1.02-.34-1.22-1.27-1.21-5.27.04-10.56-.28-15.8.1-5.24.38-9.79-.67-13.71-4.2-.63-.57-1.38-.67-2.21-.67-4.37.03-8.77.27-13.12-.06-3.83-.29-6.87.53-9.12,3.76-.53.76-1.38,1.26-2.33,1.07-2.73-.52-4.65.67-6.23,2.73-.24.31-.58.55-.84.85-.77.89-1.7,1.27-2.89,1.23-1.94-.06-3.88-.06-5.82,0-1.19.04-2.08-.4-2.89-1.24-2.36-2.42-4.77-4.79-7.16-7.18-1.44-1.44-3.49-1.63-5.2-.49-4.09,2.73-8.19,5.44-12.26,8.2-1.23.84-2.35.86-3.57,0-1.54-1.09-3.16-2.07-4.69-3.18-.69-.5-1.28-.51-2.04-.19-3.07,1.27-6.18,2.46-9.25,3.73-1.32.55-2.38.32-3.37-.7-1.48-1.54-3.1-2.96-4.5-4.56-1.08-1.24-2.25-1.68-3.88-1.62-1.23.05-1.55.33-1.54,1.57.05,12.92.03,25.85.04,38.78,0,.42-.13.88.3,1.55ZM71.53,138.59c21.72,0,43.44-.02,65.17.04,1.48,0,1.76-.41,1.75-1.8-.06-14.02-.05-28.04,0-42.05,0-1.24-.29-1.64-1.55-1.54-6.87.51-13.56-.18-19.93-3.01-.36-.16-.74-.28-1.12-.4-5.83-1.85-11.45-4.4-17.88-3.83-2.94.26-5.77.42-8.49,1.7-2.15,1.01-4.43,1.76-6.62,2.67-.85.35-1.69.51-2.6.51-5.42-.02-10.84-.1-16.25.04-2.13.06-3.83-.42-5.05-2.17-1.62-2.33-3.83-3.01-6.55-2.69-.89.1-1.57.26-2.21.93-1.61,1.7-3.33,3.28-4.93,4.98-1.18,1.26-2.36,1.49-3.99.82-7.12-2.92-14.28-5.72-21.41-8.6-.8-.32-1.58-.52-2.45-.5-2.28.05-4.83-.57-6.78.24-1.96.81-3.3,3.06-4.97,4.62-.68.63-.92,1.29-.91,2.21.03,15.41.04,30.82-.01,46.23,0,1.3.29,1.64,1.62,1.63,21.72-.05,43.44-.03,65.17-.03ZM138.41,22.1c0-5.02-.04-10.04.03-15.06.02-1.2-.26-1.39-1.39-1.1-4.75,1.24-9.53,2.38-14.28,3.6-.94.24-1.74.13-2.58-.3-2.34-1.2-4.72-2.32-7.05-3.55-.7-.37-1.24-.37-1.93,0-2.33,1.22-4.71,2.35-7.04,3.56-.95.49-1.85.55-2.86.19-1.91-.69-3.89-1.22-5.77-1.97-4.81-1.9-9.73-3.03-14.95-2.54-.85.08-1.63.19-2.41.59-3.94,2-7.91,3.93-11.83,5.96-1.32.68-2.46.72-3.79,0-2.76-1.47-5.68-2.65-8.36-4.26-3.11-1.87-6.34-2.52-9.92-2.33-2.15.11-4.18.33-6.22,1.14-4.98,1.98-10.03,3.77-15.04,5.68-1.22.47-2.26.41-3.38-.3-2.44-1.54-5.03-2.83-7.37-4.51-2.06-1.48-3.97-1.83-6.28-.7-.9.44-1.25.79-1.25,1.8.05,8.25.03,16.5.03,24.75,0,3.2,0,3.29,3.26,3.17,1.8-.07,3.13.46,4.32,1.81,1.28,1.45,2.75,2.73,4.08,4.14.6.63,1.1.77,1.94.41,2.92-1.24,5.9-2.36,8.83-3.57,1.17-.48,2.18-.41,3.22.32,1.46,1.03,3,1.95,4.45,3,.67.48,1.15.49,1.84.02,2.91-1.99,5.98-3.77,8.76-5.93,2.63-2.04,5.4-2.91,8.69-2.59,1.22.12,2.17.44,3.02,1.31,2.08,2.14,4.3,4.15,6.29,6.37,1.3,1.45,2.67,2.03,4.63,1.98,1.77-.04,3.15-.35,4.26-1.79.6-.78,1.4-1.41,2.09-2.12.62-.64,1.37-1.06,2.26-.91,2.56.43,4.51-.49,6-2.56.2-.28.51-.48.73-.75.91-1.13,2.06-1.53,3.53-1.51,4.47.07,8.97.31,13.41-.05,5.32-.43,10,.6,14,4.23.59.54,1.29.63,2.07.62,6.86-.02,13.72-.04,20.58.01,1.08,0,1.44-.22,1.42-1.37-.07-4.97-.03-9.94-.03-14.91Z"/>
      <path class="cls-1" d="M113.4,52.68c3.64,0,3.62,0,3.55,3.66-.01.78-.13,1.17-1.04,1.14-1.73-.07-3.47-.04-5.2,0-.69.01-.91-.2-.95-.92-.22-3.87-.24-3.87,3.64-3.87Z"/>
      <path class="cls-1" d="M48.97,59.84c-3.88,0-3.86,0-3.65-3.86.04-.71.25-.94.95-.92,1.78.04,3.57.03,5.35,0,.61,0,.96.14.88.82-.01.1,0,.2,0,.3q.11,3.66-3.53,3.66Z"/>
      <path class="cls-1" d="M82.34,59.84h-.15c-3.81,0-3.92-.15-3.46-4.05.07-.6.3-.73.83-.73,1.83.02,3.67.03,5.5,0,.65-.01.81.23.86.86.28,3.93.3,3.92-3.58,3.92Z"/>
      <path class="cls-1" d="M89.63,64.61c3.48,0,3.44,0,3.46,3.46,0,1-.21,1.4-1.29,1.34-1.63-.09-3.27-.06-4.91,0-.79.03-.98-.25-1.01-1.02-.13-3.77-.15-3.77,3.74-3.77Z"/>
      <path class="cls-1" d="M17.9,71.77c-3.66,0-3.63,0-3.6-3.62,0-.89.2-1.22,1.15-1.18,1.63.08,3.29-.12,4.9.05,2.39.26.67,2.15,1.08,3.23.28.75.23,1.72-1.15,1.53-.78-.11-1.58-.02-2.38-.02Z"/>
      <path class="cls-1" d="M118.14,71.77h-.15c-3.81,0-3.92-.15-3.46-4.05.07-.6.3-.73.83-.73,1.83.02,3.67.03,5.5,0,.65-.01.81.23.86.86.28,3.93.3,3.92-3.58,3.92Z"/>
      <path class="cls-1" d="M27.59,52.68c3.47,0,3.43,0,3.46,3.46,0,1.01-.22,1.4-1.3,1.34-1.63-.09-3.27-.06-4.91,0-.8.03-.98-.26-1-1.02-.12-3.77-.15-3.77,3.74-3.77Z"/>
      <path class="cls-1" d="M35.85,67q2.33,0,2.33,2.77,0,2-2.96,2-1.82,0-1.81-3,0-1.78,2.44-1.78Z"/>
      <path class="cls-1" d="M64.43,71.72q0,2.44-2.82,2.44-1.95,0-1.95-2.86,0-1.92,3.04-1.92,1.73,0,1.73,2.34Z"/>
      <path class="cls-1" d="M131.25,74.26q0,2.29-2.37,2.29t-2.4-2.41,2.3-2.36,2.47,2.48Z"/>
      <path class="cls-1" d="M40.57,115.93c.85,3.54-.8,5.76-3.62,7.7-2.94,2.02-5.65,4.38-8.39,6.66-1.02.85-2.08,1.19-3.4,1.17-5.92-.08-4.8.59-7.45-4.62-1.78-3.49-3.47-7.02-5.27-10.5-.76-1.46-.56-2.6.61-3.73,2.14-2.07,4.24-4.18,6.32-6.32.79-.81,1.67-1.14,2.79-1.12,6.23.13,4.21-.79,8.61,3.57.87.86,1.71,1.35,2.97,1.25,1.38-.12,2.78-.05,4.17-.02,1.75.04,2.62.92,2.66,2.69.03,1.09,0,2.18,0,3.28ZM35.8,116.88c-.04-2.47.27-2.31-1.84-2.11-2.84.28-5.05-.52-6.72-2.83-.2-.28-.49-.5-.73-.74-1.83-1.82-3.46-1.81-5.29.01-1.09,1.09-2.15,2.21-3.28,3.25-.58.53-.61.98-.26,1.66,1.54,3,3.04,6.03,4.55,9.05.89,1.78,2.41,2.1,4.03.81,2.76-2.19,5.49-4.44,8.28-6.59.95-.73,1.57-1.49,1.27-2.53Z"/>
      <path class="cls-1" d="M85.9,124.28c-.08,1.32-.89,1.99-2.06,2.43-4.51,1.67-9,3.37-13.5,5.05-1.58.59-3.15,1.2-4.74,1.76-1.78.63-2.93.13-3.52-1.62-1.56-4.6-3.09-9.21-4.59-13.82-.6-1.84.28-3.12,2.2-3.37,6.1-.78,12.2-1.54,18.3-2.33,1.4-.18,2.41.27,3.05,1.56,1.47,2.98,2.97,5.94,4.45,8.92.22.44.44.89.41,1.42ZM76.72,117.4c-4.37.54-8.7,1.07-13.03,1.6-.65.08-.8.34-.57.99.87,2.48,1.69,4.97,2.49,7.47.23.71.56.79,1.21.54,4.17-1.58,8.34-3.15,12.53-4.69.67-.25.79-.55.44-1.19-.73-1.35-1.4-2.74-2.06-4.12-.22-.47-.52-.71-1-.6Z"/>
      <path class="cls-1" d="M133.64,119.5c0,2.23-.03,4.47.01,6.7.03,1.5-.63,2.42-2.06,2.88-2.17.69-4.34,1.41-6.49,2.15-1.32.46-2.31.08-3.12-1.01-2.22-2.98-4.48-5.94-6.69-8.93-1.28-1.73-.93-3.15.99-4.12,4.47-2.25,8.94-4.49,13.43-6.71,2.31-1.14,3.9-.11,3.92,2.49.02,2.18,0,4.37,0,6.55ZM128.86,116.23c-1.59.78-3,1.46-4.4,2.17-1.23.63-3.2,1.09-3.45,2-.32,1.16,1.37,2.31,2.2,3.45,1.89,2.59,1.91,2.56,4.86,1.36.53-.22.8-.45.8-1.05-.02-2.57-.01-5.13-.01-7.94Z"/>
      <path class="cls-1" d="M47.73,104.34c-1.07-3.47.94-6.3,3.94-8.95,3.15-2.78,3.42-2.93,6.36,0,1.79,1.79,3.6,3.56,5.37,5.37,1.55,1.59,1.37,3.14-.5,4.29-3.73,2.27-7.47,4.52-11.23,6.73-2.12,1.24-3.89.2-3.93-2.25-.03-1.49,0-2.98,0-5.19ZM58.4,102.19c-1.07-.95-2.02-1.74-2.91-2.59-.47-.45-.72-.34-1.22,0-2.29,1.53-1.83,3.72-1.67,6.09,1.94-1.17,3.7-2.23,5.8-3.49Z"/>
      <path class="cls-1" d="M102.61,106.71c.28,1.47-.5,2.57-1.92,3.45-1.98,1.23-3.89,2.58-5.84,3.85-1.61,1.05-2.5.97-3.83-.35-2.16-2.13-4.27-4.3-6.44-6.42-1.12-1.09-1.35-2.22-.58-3.61.69-1.26,1.28-2.58,1.94-3.86.89-1.72,1.87-2.12,3.65-1.42,3.46,1.36,6.91,2.75,10.37,4.13,2.47.99,2.66,1.27,2.65,4.22ZM97.14,106.53c-2.4-.96-4.72-1.89-7.04-2.83-.42-.17-.74-.17-.96.33-.16.37-.36.69.04,1.05.47.43.91.9,1.36,1.36q3.01,3,6.38.42s.05-.08.21-.33Z"/>
      <path class="cls-1" d="M21.48,95.65q0,2.37-2.88,2.37-1.89,0-1.89-2.92,0-1.85,2.96-1.85,1.81,0,1.81,2.4Z"/>
      <path class="cls-1" d="M116.93,98.08q0,2.33-2.77,2.33-2,0-2-2.96,0-1.82,3-1.81,1.78,0,1.78,2.44Z"/>
      <path class="cls-1" d="M71.59,105.18q-2.38,0-2.38-2.88,0-1.9,2.91-1.9,1.86,0,1.86,2.95,0,1.82-2.39,1.82Z"/>
      <path class="cls-1" d="M123.99,105.18q-2.29,0-2.29-2.37t2.41-2.4,2.36,2.3-2.48,2.47Z"/>
      <path class="cls-1" d="M40.57,131.5q0,2.32-2.78,2.32-1.99,0-1.99-2.97,0-1.81,3.01-1.8,1.77,0,1.77,2.45Z"/>
      <path class="cls-1" d="M105,121.85q0,2.43-2.83,2.43-1.94,0-1.94-2.87,0-1.91,3.05-1.91,1.72,0,1.72,2.35Z"/>
      <path class="cls-1" d="M50.13,124.27q2.38,0,2.37,2.88,0,1.89-2.92,1.89-1.86,0-1.85-2.96,0-1.82,2.4-1.82Z"/>
      <path class="cls-1" d="M97.84,129.01q0,2.42-2.83,2.42-1.94,0-1.94-2.87,0-1.9,3.06-1.9,1.72,0,1.72,2.35Z"/>
      <path class="cls-1" d="M89.49,14.5c3.66,0,3.63,0,3.6,3.62,0,.89-.2,1.22-1.15,1.18-1.63-.08-3.29.12-4.9-.06-2.39-.26-.67-2.15-1.08-3.23-.28-.75-.23-1.72,1.16-1.53.78.11,1.58.02,2.38.02Z"/>
      <path class="cls-1" d="M13.07,31.21c-3.63,0-3.61,0-3.54-3.67.02-.8.16-1.15,1.06-1.12,1.73.07,3.47.05,5.2,0,.71-.02.9.23.94.93.2,3.85.22,3.85-3.66,3.85Z"/>
      <path class="cls-1" d="M28.89,21.32q-2.38,0-2.38-2.77,0-2.01,2.83-2c1.95,0,1.96,0,1.94,2.91-.02,2.2.29,1.83-2.39,1.87Z"/>
      <path class="cls-1" d="M59.63,21.66q-2.36,0-2.36-2.75,0-2.03,2.93-2.02,1.84,0,1.84,2.97,0,1.8-2.41,1.8Z"/>
      <path class="cls-1" d="M102.61,24.02q0,2.41-2.84,2.41-1.93,0-1.93-2.88,0-1.89,2.92-1.89,1.85,0,1.85,2.36Z"/>
      <path class="cls-1" d="M66.82,31.23q0,2.36-2.75,2.36-2.03,0-2.02-2.93,0-1.84,2.97-1.84,1.8,0,1.8,2.41Z"/>
      <path class="cls-1" d="M124.09,31.07q0-2.25,2.26-2.25,2.51,0,2.51,2.45c0,.35-.04.7,0,1.04.16,1.05-.26,1.46-1.3,1.3-.29-.05-.59,0-.89,0q-2.59,0-2.59-2.52Z"/>
      <path class="cls-1" d="M124.23,14.5q2.24,0,2.24,2.27,0,2.5-2.45,2.5t-2.32-2.34,2.53-2.43Z"/>
    </g>
  </g>
</svg>