<?xml version="1.0" encoding="UTF-8"?>
<svg id="Camada_2" data-name="Camada 2" xmlns="http://www.w3.org/2000/svg" viewBox="0 0 149.35 149.32">
  <defs>
    <style>
      .cls-1 {
        fill: #213059;
        stroke-width: 0px;
      }
    </style>
  </defs>
  <g id="Camada_1-2" data-name="Camada 1">
    <g>
      <path class="cls-1" d="M91.01,0c.87.5,1.9.67,2.7,1.33,1.66,1.38,2.32,3.12,2.32,5.26-.03,9.87.01,19.73-.05,29.6,0,1.36.26,1.8,1.72,1.79,8.26-.08,16.53-.04,24.79-.04,4.63,0,6.96,2.36,6.96,7.03,0,7.83,0,15.65,0,23.48,0,.58.05,1.16-.17,1.73-.41,1.03-1.19,1.55-2.27,1.43-1.08-.12-1.77-.77-1.89-1.89-.05-.48-.03-.97-.03-1.46,0-7.73,0-15.46,0-23.18,0-2.32-.42-2.75-2.68-2.75-8.31,0-16.62.02-24.93-.02-1.11,0-1.54.24-1.48,1.43.1,2.04.1,4.09,0,6.12-.06,1.21.39,1.45,1.49,1.44,5.54-.05,11.08-.03,16.62-.02,3.38,0,4.9,1.52,4.91,4.88,0,3.11.02,6.22,0,9.33-.02,2.88-1.65,4.53-4.52,4.54-5.69.02-11.37.04-17.06-.02-1.18-.01-1.49.35-1.44,1.48.09,1.75.08,3.5,0,5.25-.05,1.05.35,1.31,1.34,1.3,5.44-.04,10.89-.02,16.33-.02,3.96,0,5.35,1.4,5.35,5.35,0,2.82,0,5.64,0,8.46,0,3.45-1.54,5.01-4.95,5.01-5.54,0-11.08.04-16.62-.03-1.16-.01-1.51.31-1.45,1.46.1,1.7.11,3.41,0,5.1-.08,1.21.4,1.44,1.49,1.43,5.44-.05,10.89-.02,16.33-.02,3.72,0,5.2,1.49,5.2,5.22,0,2.92,0,5.83,0,8.75,0,3.31-1.59,4.88-4.95,4.88-5.54,0-11.08.03-16.62-.02-1.16-.01-1.51.32-1.45,1.47.09,1.84.05,3.69.01,5.54-.02.76.25,1.01,1.01,1.01,9.04-.02,18.08-.02,27.12,0,1.11,0,.95-.68.95-1.35,0-7.15,0-14.29,0-21.44,0-9.28,0-18.57,0-27.85,0-.49-.02-.98.03-1.46.12-1.17.78-1.87,1.96-1.97,1.18-.1,1.97.49,2.26,1.62.13.51.12,1.06.12,1.59,0,8.8.02,17.6-.02,26.39,0,.98.24,1.41,1.25,1.7,2.87.81,5.13,2.53,6.64,5.12.46.78.95,1.16,1.84,1.37,7.41,1.75,11.41,9.29,8.72,16.41-.27.71-.32,1.19.25,1.81.89.96,1.22,2.18,1.21,3.49-.01,2.24.01,4.47,0,6.71-.03,3.23-2.13,5.37-5.35,5.52-.44.02-.87,0-1.31,0-45.35,0-90.7-.01-136.05.03-3.18,0-5.45-1.02-6.63-4.06v-9.63c.48-.83.78-1.77,1.51-2.45.43-.4.17-.77.02-1.19-2.75-7.71,1.1-14.8,9.12-16.74.62-.15.88-.47,1.15-.95,2.25-3.92,5.76-5.86,10.17-6.02,1.64-.06,1.83-.62,1.82-2.02-.04-23.09-.03-46.17-.02-69.26,0-.63-.01-1.27.11-1.88.23-1.1.99-1.65,2.1-1.64,1.11.01,1.86.58,2.06,1.68.12.66.1,1.35.1,2.03,0,30.81,0,61.63,0,92.44,0,2.26-.19,1.96,1.93,1.96,5.44.01,10.89-.03,16.33.03,1.09.01,1.4-.3,1.39-1.39-.05-7.53-.03-15.07-.02-22.6,0-3.22,1.17-4.38,4.4-4.38,5.2,0,10.4,0,15.6,0,2.73,0,4.03,1.29,4.03,4.01.01,7.63.03,15.26-.02,22.89,0,1.14.29,1.48,1.45,1.47,5.69-.06,11.37-.06,17.06,0,1.08.01,1.38-.28,1.38-1.37-.03-41.17-.02-82.33-.03-123.5,0-1.84-.48-2.32-2.34-2.32-19.59,0-39.17,0-58.76,0-1.91,0-2.39.5-2.4,2.44-.01,5.78,0,11.57,0,17.35,0,.58,0,1.18-.12,1.74-.24,1.03-.99,1.55-2.02,1.57-1.03.02-1.8-.47-2.07-1.49-.15-.55-.15-1.15-.15-1.73-.01-5.54,0-11.08,0-16.62,0-4.62.91-5.99,5.12-7.68h62.13ZM74.65,135.98c-22.55,0-45.09,0-67.64,0-.39,0-.78.02-1.17,0-1.03-.05-1.51.38-1.48,1.47.05,1.65.01,3.3.01,4.96q0,2.51,2.46,2.51c45.24,0,90.48,0,135.72,0,.29,0,.58-.02.87,0,1.1.07,1.6-.39,1.56-1.54-.06-1.65-.01-3.3-.01-4.96q0-2.44-2.39-2.44c-22.64,0-45.29,0-67.93,0ZM67.42,119.63c0-3.54-.04-7.09.02-10.63.02-1.05-.21-1.42-1.34-1.4-4.22.07-8.45.06-12.67,0-.99-.01-1.33.23-1.32,1.27.04,7.14.04,14.27,0,21.41,0,.98.22,1.35,1.28,1.33,4.27-.06,8.54-.05,12.82,0,.94,0,1.25-.24,1.24-1.21-.05-3.59-.02-7.19-.02-10.78ZM23.76,122.22c0-2.86,0-5.73,0-8.59,0-.54.05-1-.78-1.07-2.87-.24-6.25,1.34-7.36,4.01-.85,2.04-2.08,2.76-4.19,3.05-5.06.7-7.93,6.46-5.72,11.04.3.63.64.96,1.41.96,5.19-.03,10.39-.03,15.58,0,.84,0,1.08-.29,1.07-1.1-.04-2.77-.01-5.53-.01-8.3ZM105.23,119.25c2.72,0,5.44-.03,8.15.02.88.01,1.31-.14,1.28-1.17-.07-2.62-.05-5.24,0-7.86.01-.8-.2-1.1-1.05-1.1-5.48.03-10.97.03-16.45,0-.91,0-1.16.3-1.15,1.18.05,2.57.05,5.15,0,7.72-.02.94.26,1.27,1.23,1.25,2.67-.06,5.34-.02,8.01-.02ZM105.45,92.45c2.67,0,5.34-.02,8,.01.81.01,1.23-.1,1.2-1.08-.07-2.67-.05-5.34,0-8,.01-.75-.23-1.02-.99-1.01-5.53.02-11.06.02-16.59,0-.82,0-1.09.29-1.07,1.1.04,2.62.05,5.24,0,7.86-.02.91.29,1.16,1.16,1.14,2.76-.05,5.53-.02,8.29-.02ZM129.46,122.35c0,2.67.03,5.35-.02,8.02-.02.92.21,1.27,1.2,1.25,3.79-.05,7.58-.06,11.37,0,.95.01,1.39-.38,1.73-1.17,2.15-4.99-1.14-10.41-6.79-11.01-1.45-.15-2.31-.71-2.8-2.07-.64-1.76-1.86-3.04-3.53-3.9-.85-.44-1.19-.34-1.17.71.05,2.72.02,5.44.02,8.17ZM105.34,65.65c2.77,0,5.53-.02,8.3.01.74,0,1.02-.19,1.01-.98-.04-2.67-.05-5.34,0-8.01.02-.85-.29-1.06-1.09-1.05-5.49.03-10.97.03-16.46,0-.95,0-1.12.38-1.11,1.21.04,2.52.07,5.05,0,7.57-.03,1.07.38,1.28,1.34,1.26,2.67-.06,5.34-.02,8.01-.02Z"/>
      <path class="cls-1" d="M48.14,18.35c0,1.17.03,2.33,0,3.5-.07,2.09-1.42,3.48-3.48,3.52-2.38.05-4.76.04-7.14,0-2.09-.03-3.5-1.34-3.57-3.44-.09-2.43-.09-4.86,0-7.29.08-2.1,1.44-3.41,3.57-3.47,2.38-.07,4.76-.07,7.14,0,2.16.07,3.45,1.48,3.5,3.67.02,1.17,0,2.33,0,3.5ZM41.12,15.53q-2.85,0-2.85,2.77t2.74,2.71,2.76-2.81-2.64-2.67Z"/>
      <path class="cls-1" d="M71.43,41.23c0-1.17-.03-2.33,0-3.5.06-2.02,1.31-3.43,3.34-3.52,2.47-.11,4.96-.1,7.43,0,1.99.07,3.3,1.34,3.38,3.32.11,2.52.12,5.06,0,7.58-.09,2.04-1.49,3.27-3.54,3.31-2.33.04-4.67.04-7,0-2.24-.03-3.57-1.41-3.62-3.68-.02-1.17,0-2.33,0-3.5ZM78.49,44.04q2.79,0,2.79-2.66,0-2.84-2.78-2.84t-2.69,2.76,2.68,2.75Z"/>
      <path class="cls-1" d="M71.43,18.21c0-1.17-.03-2.33,0-3.5.06-2.03,1.31-3.44,3.33-3.52,2.47-.1,4.96-.09,7.43,0,1.99.07,3.3,1.32,3.39,3.31.11,2.52.12,5.06,0,7.58-.09,2.04-1.5,3.27-3.54,3.3-2.38.04-4.76.04-7.14,0-2.07-.04-3.41-1.42-3.47-3.52-.04-1.21,0-2.43,0-3.64ZM78.49,21.01q2.79,0,2.79-2.83,0-2.65-2.72-2.65t-2.76,2.72,2.69,2.76Z"/>
      <path class="cls-1" d="M78.47,94.48c-1.12,0-2.24.03-3.35,0-2.27-.06-3.64-1.4-3.68-3.64-.04-2.33-.04-4.67,0-7,.03-2.16,1.39-3.55,3.56-3.6,2.33-.05,4.67-.05,7,0,2.18.05,3.55,1.35,3.62,3.56.08,2.38.09,4.77,0,7.14-.08,2.19-1.46,3.47-3.65,3.54-1.17.04-2.33,0-3.5,0ZM78.57,90.11q2.71,0,2.71-2.61,0-2.9-2.86-2.9-2.62,0-2.62,2.68,0,2.83,2.76,2.83Z"/>
      <path class="cls-1" d="M71.43,64.28c0-1.17-.03-2.33,0-3.5.06-2.03,1.31-3.46,3.31-3.54,2.52-.1,5.06-.1,7.58,0,1.89.08,3.18,1.36,3.26,3.28.11,2.52.12,5.06,0,7.58-.09,2.04-1.48,3.3-3.52,3.34-2.38.05-4.76.05-7.14,0-2.08-.05-3.43-1.44-3.49-3.51-.04-1.21,0-2.43,0-3.65ZM75.8,64.32q0,2.76,2.83,2.76,2.65,0,2.65-2.67,0-2.84-2.78-2.84t-2.7,2.75Z"/>
      <path class="cls-1" d="M41.16,71.45c-1.22,0-2.43.03-3.65,0-2.09-.07-3.51-1.36-3.59-3.45-.09-2.43-.09-4.86,0-7.29.07-2.1,1.45-3.43,3.55-3.49,2.38-.07,4.77-.07,7.14,0,2.15.07,3.48,1.49,3.51,3.67.03,2.28.03,4.57,0,6.85-.03,2.31-1.42,3.66-3.76,3.71-1.07.02-2.14,0-3.21,0ZM40.99,67.08q2.78,0,2.78-2.67,0-2.84-2.77-2.84t-2.73,2.75,2.72,2.76Z"/>
      <path class="cls-1" d="M48.14,87.34c0,1.22.03,2.43,0,3.65-.07,1.99-1.41,3.4-3.4,3.47-2.43.08-4.86.07-7.29,0-2.02-.05-3.41-1.36-3.49-3.38-.1-2.47-.1-4.96,0-7.44.08-2.08,1.51-3.36,3.62-3.41,2.33-.05,4.67-.05,7,0,2.17.05,3.51,1.44,3.57,3.6.03,1.17,0,2.33,0,3.5ZM43.76,87.23q0-2.63-2.53-2.63-2.97,0-2.97,2.94,0,2.57,2.63,2.57,2.87,0,2.87-2.88Z"/>
      <path class="cls-1" d="M48.14,41.28c0,1.22.03,2.43,0,3.65-.07,2.07-1.44,3.45-3.53,3.49-2.38.05-4.76.04-7.15,0-2.01-.04-3.43-1.34-3.52-3.35-.1-2.47-.1-4.96,0-7.43.07-2.02,1.42-3.35,3.46-3.42,2.43-.09,4.86-.09,7.29,0,2.1.08,3.39,1.49,3.45,3.58.03,1.17,0,2.33,0,3.5ZM43.76,41.41q0-2.87-2.74-2.87t-2.75,2.73,2.84,2.77q2.66,0,2.66-2.64Z"/>
      <path class="cls-1" d="M66.85,41.29c0,1.26.05,2.53-.01,3.79-.09,1.94-1.41,3.27-3.36,3.32-2.48.06-4.96.06-7.43,0-1.88-.05-3.24-1.33-3.31-3.21-.1-2.57-.1-5.15,0-7.72.07-1.93,1.42-3.2,3.42-3.27,2.43-.08,4.86-.09,7.29,0,2.1.08,3.35,1.47,3.42,3.59.04,1.17,0,2.33,0,3.5,0,0,0,0-.01,0ZM62.49,41.42q0-2.89-2.6-2.89-2.85,0-2.85,2.8t2.76,2.71,2.69-2.62Z"/>
      <path class="cls-1" d="M66.85,87.43c0,1.21.04,2.43-.01,3.64-.09,1.94-1.38,3.31-3.32,3.38-2.48.09-4.96.08-7.43,0-1.97-.06-3.3-1.37-3.37-3.32-.08-2.52-.09-5.05,0-7.58.07-1.95,1.41-3.25,3.38-3.31,2.43-.07,4.86-.07,7.29,0,2.09.06,3.39,1.42,3.46,3.54.04,1.21,0,2.43,0,3.64,0,0,0,0,0,0ZM62.49,87.42q0-2.82-2.79-2.82t-2.65,2.68,2.81,2.83,2.64-2.69Z"/>
      <path class="cls-1" d="M59.92,71.45c-1.21,0-2.43.03-3.64,0-2.12-.06-3.5-1.34-3.56-3.44-.08-2.48-.08-4.96,0-7.43.07-1.96,1.38-3.28,3.35-3.35,2.48-.09,4.96-.09,7.43,0,2.02.07,3.31,1.46,3.35,3.5.05,2.43.06,4.86,0,7.29-.05,2.01-1.41,3.33-3.42,3.42-1.16.05-2.33,0-3.5.01ZM62.49,64.43q0-2.86-2.61-2.86-2.83,0-2.83,2.8t2.77,2.71,2.67-2.65Z"/>
      <path class="cls-1" d="M66.84,18.35c0,1.26.06,2.53-.01,3.79-.1,1.86-1.42,3.18-3.29,3.23-2.52.06-5.05.06-7.58,0-1.79-.05-3.15-1.33-3.22-3.13-.1-2.62-.1-5.25,0-7.87.07-1.81,1.35-3.08,3.2-3.16,2.52-.11,5.05-.11,7.58-.01,2.03.08,3.26,1.46,3.33,3.51.04,1.21,0,2.43,0,3.64h-.02ZM59.67,21.01q2.82,0,2.82-2.76s0-.1,0-.14q0-2.58-2.61-2.58-2.84,0-2.84,2.8t2.62,2.68Z"/>
    </g>
  </g>
</svg>