<?xml version="1.0" encoding="UTF-8"?>
<svg id="Camada_2" data-name="Camada 2" xmlns="http://www.w3.org/2000/svg" viewBox="0 0 167.18 170.62">
  <defs>
    <style>
      .cls-1 {
        fill: #213059;
        stroke-width: 0px;
      }
    </style>
  </defs>
  <g id="Camada_1-2" data-name="Camada 1">
    <path class="cls-1" d="M59.64,170.62c-1.7-1.28-1.41-3.13-1.3-4.86.09-1.42-.26-1.86-1.78-1.85-9.55.08-19.1.04-28.64.04-2.55,0-3.25-.7-3.25-3.26,0-10.55-.05-21.09.05-31.64.02-1.81-.54-2.15-2.2-2.11-5.22.11-10.44.05-15.65.04-4.38-.01-6.83-2.44-6.84-6.79-.01-4.16-.02-8.33,0-12.49.02-4.23,2.5-6.69,6.76-6.7,5.5-.01,10.99-.03,16.49.02,1.03,0,1.44-.2,1.42-1.35-.06-5.33-.05-10.66-.01-15.99,0-.96-.09-1.29-1.25-1.13-4.7.64-9.01-1.63-10.95-5.59-2.08-4.25-1.36-9,2.03-12.43,5.34-5.41,10.73-10.78,16.14-16.13.73-.72,1.04-1.43,1.03-2.47-.04-9.33-.03-18.65-.02-27.98,0-2.55.7-3.23,3.27-3.24,4.44,0,8.88,0,13.32,0,2.33,0,3.05.75,3.06,3.11,0,3.14,0,6.28,0,9.5.82-.21,1.14-.77,1.55-1.18,7.43-7.41,14.84-14.83,22.26-22.25,5.22-5.21,11.82-5.2,17.04.02,20.02,20.02,40.04,40.03,60.05,60.06,4.08,4.08,4.84,9.16,2.11,13.78-2.18,3.69-6.27,5.34-11.73,4.67,0,1.84,0,3.66,0,5.49,0,1.19.89.75,1.44.75,5.37-.05,10.32,1.33,14.74,4.41,3.49,2.43,6.13,5.61,7.91,9.47,1.12,2.42.27,3.76-2.4,3.77-6.55.02-13.1,0-19.65,0-2.25,0-2.7.46-2.7,2.74,0,3.28,0,6.55,0,9.83,0,2.29.45,2.75,2.69,2.75,6.38,0,12.77,0,19.15,0,3.4,0,4.24,1.31,2.62,4.36-4.68,8.81-12.13,13.12-22.01,13.24-1.46.02-1.84.31-1.82,1.79.09,6.55.04,13.1.04,19.65,0,2.56-.69,3.25-3.25,3.25-10.1,0-20.21.04-30.31-.04-1.54-.01-1.87.45-1.78,1.85.11,1.73.4,3.58-1.3,4.85h-46.3ZM102.61,88.95c.57-.27.86-.41,1.15-.55,6.44-2.99,13.68.87,14.72,7.88.18,1.2.08,2.44.12,3.66.01.32-.1.68.19.94.63.56,4.21-.02,4.72-.77,3.3-4.91,7.7-8.39,13.36-10.19.84-.27,1.08-.68,1.06-1.53-.06-2.39-.06-4.77,0-7.16.02-.92-.31-1.53-.94-2.16-17.37-17.34-34.73-34.68-52.04-52.07-1.1-1.1-1.63-1.03-2.68.02-16.96,17.03-33.97,34.02-50.97,51.02-.43.43-.82.9-1.27,1.32-.56.53-.74,1.14-.74,1.92.03,6.11.05,12.21-.01,18.32-.01,1.21.39,1.44,1.51,1.44,8.44-.04,16.88-.04,25.31,0,.94,0,1.69-.29,2.47-.75,4.26-2.54,8.59-4.81,13.78-4.78,5.05.03,8.38,2.51,9.15,7.15.26,1.54.14,3.09-.06,4.64-.14,1.1-.53,1.9-1.46,2.63-2.84,2.22-5.57,4.59-8.36,6.87-.62.51-.79.85-.21,1.58,3.88,4.87,4.59,10.44,3.4,16.37-.38,1.88-1.57,2.85-3.04,2.58-1.37-.26-2.13-1.76-1.69-3.62,1.78-7.55-1.57-14.79-9.52-17.38-1.43-.47-2.03-1.87-1.51-3.22.47-1.23,1.83-1.79,3.18-1.2,1.37.6,2.73,1.24,4.01,2,.79.47,1.31.5,2.03-.13,2.58-2.27,5.22-4.48,7.86-6.69.55-.46.82-.93.85-1.68.11-3.93-1.73-5.77-5.64-5.12-6.06,1-11.01,4.18-15.34,8.39-1.36,1.32-1.58,3.13-1.68,4.92-.5,8.99.34,17.86,2.73,26.54,1.07,3.9,2.29,7.79,5.44,10.67.54.49.5,1.18.5,1.86-.02,4,.02,7.99-.05,11.99-.02,1.11.33,1.38,1.4,1.38,12.27-.04,24.54-.04,36.81,0,1.14,0,1.52-.26,1.49-1.46-.08-3.94-.03-7.88-.05-11.82,0-.74-.04-1.46.55-2.01,2.82-2.65,4.66-6.06,7.03-9.06,2.37-2.99,4.11-6.07,3.49-10.12-.23-1.5.9-2.5,2.24-2.53,1.41-.02,2.33.96,2.36,2.62.03,1.83-.01,3.66.02,5.5.01.76-.23,1.39-.66,2-2.63,3.71-5.04,7.6-7.94,11.09-1.93,2.32-2.68,4.64-2.45,7.55.1,1.2.3,1.58,1.57,1.57,9.22-.06,18.43-.05,27.65,0,1.11,0,1.53-.21,1.51-1.43-.07-6.05-.05-12.1,0-18.15,0-1-.31-1.43-1.26-1.73-4.62-1.47-8.6-4.03-11.44-7.93-1.69-2.32-3.4-3.59-6.37-3.14-1.61.24-2.63-.91-2.6-2.33.03-1.34.99-2.24,2.55-2.27,1.78-.04,3.55,0,5.33-.01,1-.01,1.61.44,2.12,1.3,3.35,5.55,7.83,9.33,14.53,10.54,5.31.96,10,.09,14.49-2.59,2.13-1.27,3.92-2.97,5.52-5.24-5.84,0-11.38.02-16.92,0-3.81-.02-6.61-2.82-6.64-6.63-.03-3.77-.03-7.55,0-11.32.03-3.9,2.82-6.67,6.75-6.68,5.05-.02,10.1,0,15.16-.02.46,0,.98.19,1.47-.23-.13-.2-.22-.39-.35-.55-6.51-7.85-15.34-9.02-23.4-6.04-4.65,1.72-8.05,5.05-10.48,9.33-.6,1.05-1.32,1.54-2.51,1.5-1.39-.05-2.78.03-4.16-.03-.87-.04-1.16.24-1.14,1.12.05,2.39.03,4.77.01,7.16-.03,4.79-2.67,8.62-6.96,10.12-4.24,1.49-8.53.21-11.58-3.56-.55-.68-.83-.7-1.51-.2-3.3,2.42-6.89,2.74-10.51.91-3.72-1.88-5.67-5.05-5.74-9.25-.06-3.33-.02-6.66,0-9.99,0-1.91.89-2.97,2.38-2.94,1.44.03,2.26,1.06,2.27,2.88.02,3.16,0,6.33,0,9.49.01,3.58,2.5,6.3,5.72,6.26,3.09-.04,5.27-2.61,5.27-6.26,0-9.16,0-18.32,0-27.48,0-3.42-2-5.73-5.03-5.89-3.18-.16-5.63,2.05-5.95,5.41-.14,1.46-.89,2.24-2.35,2.23-1.45-.01-2.19-.81-2.33-2.26-.3-3.24-2.56-5.38-5.64-5.39-3.08,0-5.39,2.16-5.67,5.36-.13,1.45-.84,2.24-2.3,2.29-1.44.05-2.24-.78-2.38-2.38-.28-3.32-2.59-5.39-5.85-5.27-2.99.11-5.11,2.41-5.13,5.62-.02,4.33,0,8.66,0,12.99,0,1.96-.82,3.01-2.3,3.02-1.49.02-2.35-1.05-2.35-2.97-.01-4.39-.03-8.77,0-13.16.04-4.27,1.87-7.55,5.84-9.27,4.01-1.73,7.84-1.13,11.19,1.7.8.67,1.16.74,1.99.03,4.05-3.52,9.85-3.55,13.85-.05.95.83,1.36.69,2.26-.04,3.38-2.79,7.21-3.39,11.2-1.54,3.87,1.79,5.58,5.05,5.63,9.24.02,1.72,0,3.43,0,5.36ZM151.03,72.08c.08-1.99-.83-3.47-2.2-4.83-19.96-19.93-39.89-39.88-59.83-59.82-3.66-3.66-7.1-3.65-10.78.04-19.86,19.86-39.73,39.72-59.59,59.59-.43.43-.89.84-1.26,1.33-1.51,2.03-1.47,4.25-.61,6.48.81,2.08,2.61,2.7,4.66,2.91,2.72.28,4.61-1.13,6.4-2.92,17.73-17.76,35.48-35.5,53.23-53.24,2.25-2.25,2.91-2.25,5.19.03,14.64,14.64,29.28,29.29,43.92,43.93,3.38,3.38,6.73,6.77,10.13,10.12,2.15,2.12,5.21,2.69,7.83,1.55,2.27-1,2.8-2.97,2.91-5.17ZM29.32,143.06c0,4.88.06,9.77-.04,14.65-.03,1.37.43,1.63,1.68,1.61,5.05-.07,10.1-.03,15.15-.03,3.66,0,7.32,0,10.98,0,.49,0,1.25.25,1.19-.67-.16-2.45.72-5.07-1.46-7.19-1.05-1.03-1.6-2.51-2.21-3.88-2.66-6.06-3.84-12.48-4.57-18.99-.13-1.16-.35-1.61-1.63-1.59-5.88.07-11.76.06-17.64,0-1.16-.01-1.5.28-1.48,1.47.07,4.88.03,9.76.03,14.65ZM51.98,105.73c-.36-.03-.56-.06-.76-.06-14.82,0-29.64,0-44.46-.01-1.48,0-2.11.68-2.1,2.13.03,4,0,7.99.01,11.99,0,2.15.38,2.54,2.5,2.54,13.6,0,27.2-.02,40.8.04,1.39,0,1.54-.44,1.55-1.7.03-5.05-.68-10.23,2.46-14.93ZM113.93,106.04c0-2.72.02-5.44,0-8.16-.03-3.56-2.25-5.86-5.62-5.87-3.39-.02-5.67,2.27-5.69,5.8-.03,5.38-.02,10.77,0,16.15.01,3.34,2.52,6,5.62,6.01,3.1.02,5.65-2.63,5.69-5.95.03-2.66,0-5.33,0-7.99ZM36.32,42.65c3.54-3.53,6.78-6.76,10.02-9.98.31-.31.3-.69.3-1.08,0-3.71-.01-7.42.01-11.13,0-.74-.15-1.1-1-1.08-2.77.04-5.54.04-8.31,0-.79-.01-1.05.24-1.05,1.04.02,7.25.01,14.5.01,22.24Z"/>
  </g>
</svg>